<?xml version="1.0" standalone="no"?><!DOCTYPE svg PUBLIC "-//W3C//DTD SVG 1.1//EN" "http://www.w3.org/Graphics/SVG/1.1/DTD/svg11.dtd"><svg xmlns:xlink="http://www.w3.org/1999/xlink" version="1.1" class="highcharts-root" style="font-family:&quot;lucida grande&quot;, &quot;lucida sans unicode&quot;, arial, helvetica, sans-serif;font-size:12px;" xmlns="http://www.w3.org/2000/svg" width="600" height="350" viewBox="0 0 600 350"><desc>Created with Highcharts 5.0.9</desc><defs><linearGradient x1="0" y1="0" x2="1" y2="0" id="highcharts-jp9bt01-34"><stop offset="0" stop-color="#E6F0FB" stop-opacity="1"></stop><stop offset="1" stop-color="#2080DF" stop-opacity="1"></stop></linearGradient><clipPath id="highcharts-jp9bt01-35"><rect x="0" y="0" width="560" height="230" fill="none"></rect></clipPath></defs><rect fill="#ffffff" class="highcharts-background" x="0" y="0" width="600" height="350" rx="0" ry="0"></rect><rect fill="none" class="highcharts-plot-background" x="30" y="40" width="560" height="230"></rect><g class="highcharts-grid highcharts-xaxis-grid "><path fill="none" class="highcharts-grid-line" d="M 85.5 40 L 85.5 270" opacity="1"></path><path fill="none" class="highcharts-grid-line" d="M 141.5 40 L 141.5 270" opacity="1"></path><path fill="none" class="highcharts-grid-line" d="M 197.5 40 L 197.5 270" opacity="1"></path><path fill="none" class="highcharts-grid-line" d="M 253.5 40 L 253.5 270" opacity="1"></path><path fill="none" class="highcharts-grid-line" d="M 309.5 40 L 309.5 270" opacity="1"></path><path fill="none" class="highcharts-grid-line" d="M 365.5 40 L 365.5 270" opacity="1"></path><path fill="none" class="highcharts-grid-line" d="M 421.5 40 L 421.5 270" opacity="1"></path><path fill="none" class="highcharts-grid-line" d="M 477.5 40 L 477.5 270" opacity="1"></path><path fill="none" class="highcharts-grid-line" d="M 533.5 40 L 533.5 270" opacity="1"></path><path fill="none" class="highcharts-grid-line" d="M 589.5 40 L 589.5 270" opacity="1"></path><path fill="none" class="highcharts-grid-line" d="M 29.5 40 L 29.5 270" opacity="1"></path></g><g class="highcharts-grid highcharts-yaxis-grid "><path fill="none" stroke="#e6e6e6" stroke-width="1" class="highcharts-grid-line" d="M 30 247.5 L 590 247.5" opacity="1"></path><path fill="none" stroke="#e6e6e6" stroke-width="1" class="highcharts-grid-line" d="M 30 224.5 L 590 224.5" opacity="1"></path><path fill="none" stroke="#e6e6e6" stroke-width="1" class="highcharts-grid-line" d="M 30 201.5 L 590 201.5" opacity="1"></path><path fill="none" stroke="#e6e6e6" stroke-width="1" class="highcharts-grid-line" d="M 30 178.5 L 590 178.5" opacity="1"></path><path fill="none" stroke="#e6e6e6" stroke-width="1" class="highcharts-grid-line" d="M 30 155.5 L 590 155.5" opacity="1"></path><path fill="none" stroke="#e6e6e6" stroke-width="1" class="highcharts-grid-line" d="M 30 132.5 L 590 132.5" opacity="1"></path><path fill="none" stroke="#e6e6e6" stroke-width="1" class="highcharts-grid-line" d="M 30 109.5 L 590 109.5" opacity="1"></path><path fill="none" stroke="#e6e6e6" stroke-width="1" class="highcharts-grid-line" d="M 30 86.5 L 590 86.5" opacity="1"></path><path fill="none" stroke="#e6e6e6" stroke-width="1" class="highcharts-grid-line" d="M 30 63.5 L 590 63.5" opacity="1"></path><path fill="none" stroke="#e6e6e6" stroke-width="1" class="highcharts-grid-line" d="M 30 39.5 L 590 39.5" opacity="1"></path><path fill="none" stroke="#e6e6e6" stroke-width="1" class="highcharts-grid-line" d="M 30 270.5 L 590 270.5" opacity="1"></path></g><rect fill="none" class="highcharts-plot-border" stroke="#cccccc" stroke-width="1" x="29.5" y="39.5" width="561" height="231"></rect><g class="highcharts-axis highcharts-xaxis "><path fill="none" class="highcharts-tick" stroke="#ccd6eb" stroke-width="1" d="M 85.5 270 L 85.5 280" opacity="1"></path><path fill="none" class="highcharts-tick" stroke="#ccd6eb" stroke-width="1" d="M 141.5 270 L 141.5 280" opacity="1"></path><path fill="none" class="highcharts-tick" stroke="#ccd6eb" stroke-width="1" d="M 197.5 270 L 197.5 280" opacity="1"></path><path fill="none" class="highcharts-tick" stroke="#ccd6eb" stroke-width="1" d="M 253.5 270 L 253.5 280" opacity="1"></path><path fill="none" class="highcharts-tick" stroke="#ccd6eb" stroke-width="1" d="M 309.5 270 L 309.5 280" opacity="1"></path><path fill="none" class="highcharts-tick" stroke="#ccd6eb" stroke-width="1" d="M 365.5 270 L 365.5 280" opacity="1"></path><path fill="none" class="highcharts-tick" stroke="#ccd6eb" stroke-width="1" d="M 421.5 270 L 421.5 280" opacity="1"></path><path fill="none" class="highcharts-tick" stroke="#ccd6eb" stroke-width="1" d="M 477.5 270 L 477.5 280" opacity="1"></path><path fill="none" class="highcharts-tick" stroke="#ccd6eb" stroke-width="1" d="M 533.5 270 L 533.5 280" opacity="1"></path><path fill="none" class="highcharts-tick" stroke="#ccd6eb" stroke-width="1" d="M 590.5 270 L 590.5 280" opacity="1"></path><path fill="none" class="highcharts-tick" stroke="#ccd6eb" stroke-width="1" d="M 29.5 270 L 29.5 280" opacity="1"></path><path fill="none" class="highcharts-axis-line" stroke="#ccd6eb" stroke-width="1" d="M 30 270.5 L 590 270.5"></path></g><g class="highcharts-axis highcharts-yaxis "><path fill="none" class="highcharts-axis-line" d="M 30 40 L 30 270"></path></g><g class="highcharts-series-group"><g class="highcharts-series highcharts-series-0 highcharts-heatmap-series highcharts-color-0 " transform="translate(30,40) scale(1 1)" clip-path="url(#highcharts-jp9bt01-35)"><rect x="0" y="207" width="56" height="23" fill="rgb(91,162,231)" class="highcharts-point highcharts-color-0"></rect><rect x="0" y="184" width="56" height="23" fill="rgb(230,240,251)" class="highcharts-point highcharts-color-0"></rect><rect x="0" y="161" width="56" height="23" fill="rgb(227,238,251)" class="highcharts-point highcharts-color-0"></rect><rect x="0" y="138" width="56" height="23" fill="rgb(230,240,251)" class="highcharts-point highcharts-color-0"></rect><rect x="0" y="115" width="56" height="23" fill="rgb(230,240,251)" class="highcharts-point highcharts-color-0"></rect><rect x="0" y="92" width="56" height="23" fill="rgb(230,240,251)" class="highcharts-point highcharts-color-0"></rect><rect x="0" y="69" width="56" height="23" fill="rgb(230,240,251)" class="highcharts-point highcharts-color-0"></rect><rect x="0" y="46" width="56" height="23" fill="rgb(230,240,251)" class="highcharts-point highcharts-color-0"></rect><rect x="0" y="23" width="56" height="23" fill="rgb(230,240,251)" class="highcharts-point highcharts-color-0"></rect><rect x="0" y="0" width="56" height="23" fill="rgb(230,240,251)" class="highcharts-point highcharts-color-0"></rect><rect x="56" y="207" width="56" height="23" fill="rgb(230,240,251)" class="highcharts-point highcharts-color-0"></rect><rect x="56" y="184" width="56" height="23" fill="rgb(45,135,225)" class="highcharts-point highcharts-color-0"></rect><rect x="56" y="161" width="56" height="23" fill="rgb(227,238,251)" class="highcharts-point highcharts-color-0"></rect><rect x="56" y="138" width="56" height="23" fill="rgb(230,240,251)" class="highcharts-point highcharts-color-0"></rect><rect x="56" y="115" width="56" height="23" fill="rgb(230,240,251)" class="highcharts-point highcharts-color-0"></rect><rect x="56" y="92" width="56" height="23" fill="rgb(230,240,251)" class="highcharts-point highcharts-color-0"></rect><rect x="56" y="69" width="56" height="23" fill="rgb(230,240,251)" class="highcharts-point highcharts-color-0"></rect><rect x="56" y="46" width="56" height="23" fill="rgb(230,240,251)" class="highcharts-point highcharts-color-0"></rect><rect x="56" y="23" width="56" height="23" fill="rgb(230,240,251)" class="highcharts-point highcharts-color-0"></rect><rect x="56" y="0" width="56" height="23" fill="rgb(230,240,251)" class="highcharts-point highcharts-color-0"></rect><rect x="112" y="207" width="56" height="23" fill="rgb(230,240,251)" class="highcharts-point highcharts-color-0"></rect><rect x="112" y="184" width="56" height="23" fill="rgb(230,240,251)" class="highcharts-point highcharts-color-0"></rect><rect x="112" y="161" width="56" height="23" fill="rgb(85,158,230)" class="highcharts-point highcharts-color-0"></rect><rect x="112" y="138" width="56" height="23" fill="rgb(230,240,251)" class="highcharts-point highcharts-color-0"></rect><rect x="112" y="115" width="56" height="23" fill="rgb(230,240,251)" class="highcharts-point highcharts-color-0"></rect><rect x="112" y="92" width="56" height="23" fill="rgb(227,238,251)" class="highcharts-point highcharts-color-0"></rect><rect x="112" y="69" width="56" height="23" fill="rgb(223,236,250)" class="highcharts-point highcharts-color-0"></rect><rect x="112" y="46" width="56" height="23" fill="rgb(230,240,251)" class="highcharts-point highcharts-color-0"></rect><rect x="112" y="23" width="56" height="23" fill="rgb(223,236,250)" class="highcharts-point highcharts-color-0"></rect><rect x="112" y="0" width="56" height="23" fill="rgb(230,240,251)" class="highcharts-point highcharts-color-0"></rect><rect x="168" y="207" width="56" height="23" fill="rgb(230,240,251)" class="highcharts-point highcharts-color-0"></rect><rect x="168" y="184" width="56" height="23" fill="rgb(214,231,249)" class="highcharts-point highcharts-color-0"></rect><rect x="168" y="161" width="56" height="23" fill="rgb(223,236,250)" class="highcharts-point highcharts-color-0"></rect><rect x="168" y="138" width="56" height="23" fill="rgb(101,167,233)" class="highcharts-point highcharts-color-0"></rect><rect x="168" y="115" width="56" height="23" fill="rgb(230,240,251)" class="highcharts-point highcharts-color-0"></rect><rect x="168" y="92" width="56" height="23" fill="rgb(223,236,250)" class="highcharts-point highcharts-color-0"></rect><rect x="168" y="69" width="56" height="23" fill="rgb(230,240,251)" class="highcharts-point highcharts-color-0"></rect><rect x="168" y="46" width="56" height="23" fill="rgb(227,238,251)" class="highcharts-point highcharts-color-0"></rect><rect x="168" y="23" width="56" height="23" fill="rgb(230,240,251)" class="highcharts-point highcharts-color-0"></rect><rect x="168" y="0" width="56" height="23" fill="rgb(230,240,251)" class="highcharts-point highcharts-color-0"></rect><rect x="224" y="207" width="56" height="23" fill="rgb(230,240,251)" class="highcharts-point highcharts-color-0"></rect><rect x="224" y="184" width="56" height="23" fill="rgb(230,240,251)" class="highcharts-point highcharts-color-0"></rect><rect x="224" y="161" width="56" height="23" fill="rgb(223,236,250)" class="highcharts-point highcharts-color-0"></rect><rect x="224" y="138" width="56" height="23" fill="rgb(230,240,251)" class="highcharts-point highcharts-color-0"></rect><rect x="224" y="115" width="56" height="23" fill="rgb(62,145,227)" class="highcharts-point highcharts-color-0"></rect><rect x="224" y="92" width="56" height="23" fill="rgb(230,240,251)" class="highcharts-point highcharts-color-0"></rect><rect x="224" y="69" width="56" height="23" fill="rgb(230,240,251)" class="highcharts-point highcharts-color-0"></rect><rect x="224" y="46" width="56" height="23" fill="rgb(230,240,251)" class="highcharts-point highcharts-color-0"></rect><rect x="224" y="23" width="56" height="23" fill="rgb(230,240,251)" class="highcharts-point highcharts-color-0"></rect><rect x="224" y="0" width="56" height="23" fill="rgb(187,216,245)" class="highcharts-point highcharts-color-0"></rect><rect x="280" y="207" width="56" height="23" fill="rgb(227,238,251)" class="highcharts-point highcharts-color-0"></rect><rect x="280" y="184" width="56" height="23" fill="rgb(230,240,251)" class="highcharts-point highcharts-color-0"></rect><rect x="280" y="161" width="56" height="23" fill="rgb(230,240,251)" class="highcharts-point highcharts-color-0"></rect><rect x="280" y="138" width="56" height="23" fill="rgb(217,233,249)" class="highcharts-point highcharts-color-0"></rect><rect x="280" y="115" width="56" height="23" fill="rgb(230,240,251)" class="highcharts-point highcharts-color-0"></rect><rect x="280" y="92" width="56" height="23" fill="rgb(98,165,232)" class="highcharts-point highcharts-color-0"></rect><rect x="280" y="69" width="56" height="23" fill="rgb(223,236,250)" class="highcharts-point highcharts-color-0"></rect><rect x="280" y="46" width="56" height="23" fill="rgb(230,240,251)" class="highcharts-point highcharts-color-0"></rect><rect x="280" y="23" width="56" height="23" fill="rgb(230,240,251)" class="highcharts-point highcharts-color-0"></rect><rect x="280" y="0" width="56" height="23" fill="rgb(230,240,251)" class="highcharts-point highcharts-color-0"></rect><rect x="336" y="207" width="56" height="23" fill="rgb(230,240,251)" class="highcharts-point highcharts-color-0"></rect><rect x="336" y="184" width="56" height="23" fill="rgb(227,238,251)" class="highcharts-point highcharts-color-0"></rect><rect x="336" y="161" width="56" height="23" fill="rgb(227,238,251)" class="highcharts-point highcharts-color-0"></rect><rect x="336" y="138" width="56" height="23" fill="rgb(230,240,251)" class="highcharts-point highcharts-color-0"></rect><rect x="336" y="115" width="56" height="23" fill="rgb(230,240,251)" class="highcharts-point highcharts-color-0"></rect><rect x="336" y="92" width="56" height="23" fill="rgb(227,238,251)" class="highcharts-point highcharts-color-0"></rect><rect x="336" y="69" width="56" height="23" fill="rgb(62,145,227)" class="highcharts-point highcharts-color-0"></rect><rect x="336" y="46" width="56" height="23" fill="rgb(230,240,251)" class="highcharts-point highcharts-color-0"></rect><rect x="336" y="23" width="56" height="23" fill="rgb(230,240,251)" class="highcharts-point highcharts-color-0"></rect><rect x="336" y="0" width="56" height="23" fill="rgb(230,240,251)" class="highcharts-point highcharts-color-0"></rect><rect x="392" y="207" width="56" height="23" fill="rgb(227,238,251)" class="highcharts-point highcharts-color-0"></rect><rect x="392" y="184" width="56" height="23" fill="rgb(227,238,251)" class="highcharts-point highcharts-color-0"></rect><rect x="392" y="161" width="56" height="23" fill="rgb(227,238,251)" class="highcharts-point highcharts-color-0"></rect><rect x="392" y="138" width="56" height="23" fill="rgb(230,240,251)" class="highcharts-point highcharts-color-0"></rect><rect x="392" y="115" width="56" height="23" fill="rgb(227,238,251)" class="highcharts-point highcharts-color-0"></rect><rect x="392" y="92" width="56" height="23" fill="rgb(230,240,251)" class="highcharts-point highcharts-color-0"></rect><rect x="392" y="69" width="56" height="23" fill="rgb(230,240,251)" class="highcharts-point highcharts-color-0"></rect><rect x="392" y="46" width="56" height="23" fill="rgb(78,154,230)" class="highcharts-point highcharts-color-0"></rect><rect x="392" y="23" width="56" height="23" fill="rgb(230,240,251)" class="highcharts-point highcharts-color-0"></rect><rect x="392" y="0" width="56" height="23" fill="rgb(227,238,251)" class="highcharts-point highcharts-color-0"></rect><rect x="448" y="207" width="56" height="23" fill="rgb(230,240,251)" class="highcharts-point highcharts-color-0"></rect><rect x="448" y="184" width="56" height="23" fill="rgb(227,238,251)" class="highcharts-point highcharts-color-0"></rect><rect x="448" y="161" width="56" height="23" fill="rgb(230,240,251)" class="highcharts-point highcharts-color-0"></rect><rect x="448" y="138" width="56" height="23" fill="rgb(227,238,251)" class="highcharts-point highcharts-color-0"></rect><rect x="448" y="115" width="56" height="23" fill="rgb(230,240,251)" class="highcharts-point highcharts-color-0"></rect><rect x="448" y="92" width="56" height="23" fill="rgb(223,236,250)" class="highcharts-point highcharts-color-0"></rect><rect x="448" y="69" width="56" height="23" fill="rgb(230,240,251)" class="highcharts-point highcharts-color-0"></rect><rect x="448" y="46" width="56" height="23" fill="rgb(230,240,251)" class="highcharts-point highcharts-color-0"></rect><rect x="448" y="23" width="56" height="23" fill="rgb(88,160,231)" class="highcharts-point highcharts-color-0"></rect><rect x="448" y="0" width="56" height="23" fill="rgb(220,234,250)" class="highcharts-point highcharts-color-0"></rect><rect x="504" y="207" width="56" height="23" fill="rgb(230,240,251)" class="highcharts-point highcharts-color-0"></rect><rect x="504" y="184" width="56" height="23" fill="rgb(230,240,251)" class="highcharts-point highcharts-color-0"></rect><rect x="504" y="161" width="56" height="23" fill="rgb(230,240,251)" class="highcharts-point highcharts-color-0"></rect><rect x="504" y="138" width="56" height="23" fill="rgb(230,240,251)" class="highcharts-point highcharts-color-0"></rect><rect x="504" y="115" width="56" height="23" fill="rgb(230,240,251)" class="highcharts-point highcharts-color-0"></rect><rect x="504" y="92" width="56" height="23" fill="rgb(230,240,251)" class="highcharts-point highcharts-color-0"></rect><rect x="504" y="69" width="56" height="23" fill="rgb(230,240,251)" class="highcharts-point highcharts-color-0"></rect><rect x="504" y="46" width="56" height="23" fill="rgb(230,240,251)" class="highcharts-point highcharts-color-0"></rect><rect x="504" y="23" width="56" height="23" fill="rgb(230,240,251)" class="highcharts-point highcharts-color-0"></rect><rect x="504" y="0" width="56" height="23" fill="rgb(118,177,235)" class="highcharts-point highcharts-color-0"></rect></g><g class="highcharts-markers highcharts-series-0 highcharts-heatmap-series highcharts-color-0 " transform="translate(30,40) scale(1 1)" clip-path="none"></g></g><text x="300" text-anchor="middle" class="highcharts-title" style="color:#333333;font-size:12px;fill:#333333;" y="19"><tspan>Confusion Matrix</tspan></text><g class="highcharts-legend" transform="translate(130,290)"><rect fill="none" class="highcharts-legend-box" rx="0" ry="0" x="0" y="0" width="214" height="45" visibility="visible"></rect><g><g><g class="highcharts-legend-item highcharts-undefined-series highcharts-color-undefined" transform="translate(8,3)"><rect x="0" y="4" width="200" height="10" fill="url(#highcharts-jp9bt01-34)"></rect><g class="highcharts-grid highcharts-coloraxis-grid "><path fill="none" stroke="#e6e6e6" stroke-width="1" class="highcharts-grid-line" d="M -0.5 4 L -0.5 14" opacity="1"></path><path fill="none" stroke="#e6e6e6" stroke-width="1" class="highcharts-grid-line" d="M 66.5 4 L 66.5 14" opacity="1"></path><path fill="none" stroke="#e6e6e6" stroke-width="1" class="highcharts-grid-line" d="M 132.5 4 L 132.5 14" opacity="1"></path><path fill="none" stroke="#e6e6e6" stroke-width="1" class="highcharts-grid-line" d="M 200.5 4 L 200.5 14" opacity="1"></path></g><text x="21" style="color:#333333;font-size:12px;font-weight:bold;cursor:pointer;fill:#333333;" text-anchor="start" y="15"></text><g class="highcharts-axis highcharts-coloraxis "><path fill="none" class="highcharts-axis-line" d="M 0 14 L 200 14"></path></g><g class="highcharts-axis-labels highcharts-coloraxis-labels "><text x="3.5" style="color:#666666;cursor:default;font-size:11px;fill:#666666;" text-anchor="middle" transform="translate(0,0)" y="33" opacity="1">0</text><text x="66.66666666666667" style="color:#666666;cursor:default;font-size:11px;fill:#666666;" text-anchor="middle" transform="translate(0,0)" y="33" opacity="1">20</text><text x="133.33333333333334" style="color:#666666;cursor:default;font-size:11px;fill:#666666;" text-anchor="middle" transform="translate(0,0)" y="33" opacity="1">40</text><text x="193.0234375" style="color:#666666;cursor:default;font-size:11px;fill:#666666;" text-anchor="middle" transform="translate(0,0)" y="33" opacity="1">60</text></g></g></g></g></g><g class="highcharts-axis-labels highcharts-xaxis-labels "><text x="58" style="color:#666666;cursor:default;font-size:11px;fill:#666666;" text-anchor="middle" transform="translate(0,0)" y="289" opacity="1">0</text><text x="114" style="color:#666666;cursor:default;font-size:11px;fill:#666666;" text-anchor="middle" transform="translate(0,0)" y="289" opacity="1">1</text><text x="170" style="color:#666666;cursor:default;font-size:11px;fill:#666666;" text-anchor="middle" transform="translate(0,0)" y="289" opacity="1">2</text><text x="226" style="color:#666666;cursor:default;font-size:11px;fill:#666666;" text-anchor="middle" transform="translate(0,0)" y="289" opacity="1">3</text><text x="282" style="color:#666666;cursor:default;font-size:11px;fill:#666666;" text-anchor="middle" transform="translate(0,0)" y="289" opacity="1">4</text><text x="338" style="color:#666666;cursor:default;font-size:11px;fill:#666666;" text-anchor="middle" transform="translate(0,0)" y="289" opacity="1">5</text><text x="394" style="color:#666666;cursor:default;font-size:11px;fill:#666666;" text-anchor="middle" transform="translate(0,0)" y="289" opacity="1">6</text><text x="450" style="color:#666666;cursor:default;font-size:11px;fill:#666666;" text-anchor="middle" transform="translate(0,0)" y="289" opacity="1">7</text><text x="506" style="color:#666666;cursor:default;font-size:11px;fill:#666666;" text-anchor="middle" transform="translate(0,0)" y="289" opacity="1">8</text><text x="562" style="color:#666666;cursor:default;font-size:11px;fill:#666666;" text-anchor="middle" transform="translate(0,0)" y="289" opacity="1">9</text></g><g class="highcharts-axis-labels highcharts-yaxis-labels "><text x="15" style="color:#666666;cursor:default;font-size:11px;fill:#666666;" text-anchor="end" transform="translate(0,0)" y="263" opacity="1"><tspan>0</tspan></text><text x="15" style="color:#666666;cursor:default;font-size:11px;fill:#666666;" text-anchor="end" transform="translate(0,0)" y="240" opacity="1"><tspan>1</tspan></text><text x="15" style="color:#666666;cursor:default;font-size:11px;fill:#666666;" text-anchor="end" transform="translate(0,0)" y="217" opacity="1"><tspan>2</tspan></text><text x="15" style="color:#666666;cursor:default;font-size:11px;fill:#666666;" text-anchor="end" transform="translate(0,0)" y="194" opacity="1"><tspan>3</tspan></text><text x="15" style="color:#666666;cursor:default;font-size:11px;fill:#666666;" text-anchor="end" transform="translate(0,0)" y="171" opacity="1"><tspan>4</tspan></text><text x="15" style="color:#666666;cursor:default;font-size:11px;fill:#666666;" text-anchor="end" transform="translate(0,0)" y="148" opacity="1"><tspan>5</tspan></text><text x="15" style="color:#666666;cursor:default;font-size:11px;fill:#666666;" text-anchor="end" transform="translate(0,0)" y="125" opacity="1"><tspan>6</tspan></text><text x="15" style="color:#666666;cursor:default;font-size:11px;fill:#666666;" text-anchor="end" transform="translate(0,0)" y="102" opacity="1"><tspan>7</tspan></text><text x="15" style="color:#666666;cursor:default;font-size:11px;fill:#666666;" text-anchor="end" transform="translate(0,0)" y="79" opacity="1"><tspan>8</tspan></text><text x="15" style="color:#666666;cursor:default;font-size:11px;fill:#666666;" text-anchor="end" transform="translate(0,0)" y="56" opacity="1"><tspan>9</tspan></text></g></svg>